:SAMPLES-PER-SECOND 30
:FRAME-RANGE 1-3549
:FULLY-SPECIFIED
:DEGREES
3328
root  64.4639 38.3365 -67.6892 172.898 -78.9186 -163.67
RightUpLeg  2.40828 -13.0828 -4.28963
RightLeg  20.9877 -9.11312 -4.05147
RightFoot  -16.2094 0.842348 22.1672
RightToes  1.218e-010 1.26228e-014 -6.01869e-014
Spine  -0.418563 4.53559 11.2747
Spine1  8.72585 5.33714 -3.56133
HEad  -8.21645 44.5622 -20.2487
LeftShoulder1  0.923159 -0.0352376 -21.5105
LeftArm  0.336787 8.40309 -48.8424
LeftForeArm  41.6756 -2.39865 -12.6169
LeftHand  -0.035191 5.08305 4.63139
RightShoulder  2.28175 4.55467 22.8934
RightArm  -24.0036 21.7486 43.1097
RightForeArm  65.8032 -5.45022 3.43089
RightHand  0.376097 -7.69507 -19.5563
LeftUpLeg  -32.8754 5.20752 -3.89579
LeftLeg  10.2516 39.4846 4.06641
LeftFoot  -5.30921 -0.301157 6.3172
LeftToes  -1.43952e-010 7.51141e-011 -1.22592e-011
3329
root  63.1586 38.1388 -67.5278 178.798 -80.6725 -170.158
RightUpLeg  2.07351 -12.6263 -7.57993
RightLeg  27.6205 -6.46355 -3.88505
RightFoot  -15.3485 0.855535 26.9909
RightToes  1.218e-010 1.26228e-014 -6.01869e-014
Spine  -0.72555 4.3093 9.25463
Spine1  9.59771 5.1803 -3.81972
HEad  -7.94606 43.97 -20.0531
LeftShoulder1  0.961381 -0.136899 -21.8242
LeftArm  -0.449386 8.59198 -48.913
LeftForeArm  41.8518 -1.06633 -12.6823
LeftHand  -0.0326599 5.15444 4.60766
RightShoulder  2.4197 4.80763 23.7418
RightArm  -22.7979 22.1696 45.7921
RightForeArm  66.5655 -5.49782 3.88663
RightHand  0.389849 -7.77681 -19.5566
LeftUpLeg  -33.4905 9.52731 -9.06206
LeftLeg  15.8611 32.4502 7.50216
LeftFoot  -6.0146 -0.198866 5.05149
LeftToes  -1.43952e-010 7.51141e-011 -1.22592e-011
3330
root  61.8021 37.9802 -67.292 -173.684 -82.7113 -178.406
RightUpLeg  0.35728 -11.43 -10.8071
RightLeg  36.6201 -3.65639 -3.17385
RightFoot  -11.3456 -0.0770095 29.2989
RightToes  1.218e-010 1.26228e-014 -6.01869e-014
Spine  -1.13603 4.10647 7.97571
Spine1  10.1698 4.97059 -4.126
HEad  -5.53842 43.4591 -18.5204
LeftShoulder1  1.04981 -0.480452 -21.6149
LeftArm  -1.34029 8.28848 -49.9442
LeftForeArm  42.4817 1.18339 -12.7083
LeftHand  -0.0288374 5.26372 4.41035
RightShoulder  2.53352 5.08204 24.1496
RightArm  -22.0925 21.7117 48.5957
RightForeArm  68.7895 -5.43361 4.00664
RightHand  0.262662 -7.1661 -18.1107
LeftUpLeg  -33.0396 14.2827 -13.9531
LeftLeg  18.4231 25.0392 8.24835
LeftFoot  -5.42859 -0.315736 6.73989
LeftToes  -1.43952e-010 7.51141e-011 -1.22592e-011
3331
root  60.43 37.9589 -66.9884 -170.93 -84.9976 178.071
RightUpLeg  -3.53323 -9.22198 -12.1195
RightLeg  47.826 -2.9878 -3.86243
RightFoot  -3.37125 -1.60457 22.4299
RightToes  1.218e-010 1.26228e-014 -6.01869e-014
Spine  -1.28416 3.92055 8.04418
Spine1  9.90218 4.69751 -3.90306
HEad  -1.76871 43.5661 -16.9494
LeftShoulder1  0.995446 -0.357204 -21.0266
LeftArm  -2.30627 8.34446 -51.7274
LeftForeArm  44.981 2.19983 -12.4635
LeftHand  -0.0234476 5.43456 4.21732
RightShoulder  2.4813 4.95977 23.952
RightArm  -20.9399 20.6254 51.4005
RightForeArm  71.1946 -5.40597 4.40534
RightHand  0.281591 -7.45723 -16.7688
LeftUpLeg  -31.3219 15.3517 -15.7317
LeftLeg  20.0477 21.6243 8.65846
LeftFoot  -5.21735 -0.527429 10.418
LeftToes  -1.43952e-010 7.51141e-011 -1.22592e-011
3332
root  59.1789 37.8629 -66.7285 -153.403 -87.6049 159.504
RightUpLeg  -8.3701 -5.61717 -12.1653
RightLeg  58.5143 -2.84546 -5.477
RightFoot  4.27736 -1.08591 8.11873
RightToes  1.218e-010 1.26228e-014 -6.01869e-014
Spine  -0.763129 3.57047 6.83076
Spine1  9.4974 4.01695 -2.76221
HEad  0.642621 43.8601 -16.8091
LeftShoulder1  1.03537 -0.416776 -21.7066
LeftArm  -1.86742 8.58537 -51.8336
LeftForeArm  45.638 0.827258 -12.5065
LeftHand  -0.0188376 5.54508 4.68034
RightShoulder  2.40733 4.60098 24.3967
RightArm  -18.4847 19.6473 53.0518
RightForeArm  72.2594 -5.56452 5.62696
RightHand  0.291719 -7.76177 -15.262
LeftUpLeg  -29.1455 13.6238 -16.2034
LeftLeg  23.0039 20.9535 9.7705
LeftFoot  -7.39339 -0.327423 10.7609
LeftToes  -1.43952e-010 7.51141e-011 -1.22592e-011
3333
root  58.0266 37.6907 -66.5307 -72.1206 -87.8123 77.3806
RightUpLeg  -11.9387 -0.57072 -12.9771
RightLeg  65.2755 -1.23981 -3.57603
RightFoot  0.770687 -0.792347 7.50726
RightToes  1.218e-010 1.26228e-014 -6.01869e-014
Spine  -0.627505 3.30668 4.86312
Spine1  9.87144 3.47479 -2.46371
HEad  1.97506 43.4646 -16.6979
LeftShoulder1  1.07734 -0.526233 -22.0268
LeftArm  -0.354555 8.57974 -51.6708
LeftForeArm  44.3103 -1.49958 -12.64
LeftHand  -0.0138029 5.58397 5.99512
RightShoulder  2.39468 4.38161 25.1345
RightArm  -16.0811 19.0144 54.4263
RightForeArm  71.8794 -3.74713 7.07468
RightHand  0.307234 -7.87959 -15.2727
LeftUpLeg  -27.1359 11.8352 -17.2696
LeftLeg  25.7514 20.174 10.5971
LeftFoot  -9.85734 -0.0682973 9.83827
LeftToes  -1.43952e-010 7.51141e-011 -1.22592e-011
3334
root  56.8651 37.6625 -66.2928 -36.033 -86.0277 40.5071
RightUpLeg  -15.4011 4.37771 -12.9337
RightLeg  68.1729 -0.78371 -2.89084
RightFoot  -1.81095 -0.696074 8.18779
RightToes  1.218e-010 1.26228e-014 -6.01869e-014
Spine  -0.364207 3.17751 4.39929
Spine1  9.89636 3.27531 -2.75426
HEad  2.8223 42.659 -17.0552
LeftShoulder1  1.11821 -0.673592 -22.0127
LeftArm  0.913663 8.56181 -51.7019
LeftForeArm  43.9037 -4.3561 -12.2674
LeftHand  -0.0186558 5.45545 6.72441
RightShoulder  2.36252 4.24378 25.2819
RightArm  -13.9255 18.0818 55.9193
RightForeArm  71.491 -0.405058 8.4953
RightHand  0.342234 -8.07857 -15.6406
LeftUpLeg  -24.4649 10.4892 -17.5303
LeftLeg  27.0403 19.514 10.8293
LeftFoot  -11.9578 0.12254 9.35802
LeftToes  -1.43952e-010 7.51141e-011 -1.22592e-011
3335
root  55.6852 37.723 -66.0528 -18.8735 -82.9569 22.7309
RightUpLeg  -18.7269 8.24928 -12.8725
RightLeg  68.1484 -1.21854 -4.08235
RightFoot  -3.34038 -0.471828 6.41346
RightToes  1.218e-010 1.26228e-014 -6.01869e-014
Spine  -0.15002 2.80038 3.72238
Spine1  9.35373 2.68916 -2.18766
HEad  3.67792 41.4864 -17.3419
LeftShoulder1  1.23324 -1.06063 -22.1675
LeftArm  3.48895 8.51942 -51.437
LeftForeArm  41.9433 -8.14818 -11.3832
LeftHand  -0.00375842 5.66779 7.72727
RightShoulder  2.27029 3.95155 25.2647
RightArm  -11.2549 16.8371 57.0753
RightForeArm  71.4961 4.14482 10.1079
RightHand  0.401508 -8.55559 -15.4967
LeftUpLeg  -21.2207 8.48609 -17.3891
LeftLeg  27.1461 18.6179 10.4242
LeftFoot  -13.6706 0.258123 8.62873
LeftToes  -1.43952e-010 7.51141e-011 -1.22592e-011
3336
root  54.5255 37.7928 -65.8342 -11.2601 -78.8442 14.6927
RightUpLeg  -21.7701 10.9825 -12.8626
RightLeg  66.1286 -2.84935 -7.68134
RightFoot  -6.67853 -0.31038 6.49911
RightToes  1.218e-010 1.26228e-014 -6.01869e-014
Spine  0.0881454 2.20875 2.67368
Spine1  8.49299 1.86853 -1.32706
HEad  4.10107 40.1185 -17.639
LeftShoulder1  1.40597 -1.69329 -22.0444
LeftArm  8.8647 8.31424 -51.1789
LeftForeArm  37.1109 -12.7767 -9.64553
LeftHand  0.0533829 6.26477 9.98949
RightShoulder  2.16288 3.56857 25.4455
RightArm  -2.54271 15.9898 58.0396
RightForeArm  65.8269 9.97532 10.4346
RightHand  0.446467 -8.88695 -15.5354
LeftUpLeg  -17.9838 5.8962 -17.2048
LeftLeg  26.9668 17.5978 9.83652
LeftFoot  -15.0294 0.355034 8.20136
LeftToes  -1.43952e-010 7.51141e-011 -1.22592e-011
3337
root  53.3522 37.8541 -65.6022 -6.01135 -74.2842 8.96521
RightUpLeg  -24.6346 13.4868 -12.893
RightLeg  62.3443 -4.33075 -9.44336
RightFoot  -8.97022 -0.169671 5.24817
RightToes  1.218e-010 1.26228e-014 -6.01869e-014
Spine  -0.0395289 1.50294 2.08957
Spine1  8.17624 0.995573 -0.529148
HEad  4.5337 38.3176 -17.3637
LeftShoulder1  1.53182 -2.20246 -21.7121
LeftArm  14.7416 7.87716 -51.0975
LeftForeArm  32.0365 -18.0889 -6.34454
LeftHand  0.121601 6.76047 12.0607
RightShoulder  2.08123 3.30705 25.4493
RightArm  12.3876 15.2493 58.989
RightForeArm  53.3635 17.4292 7.07753
RightHand  0.505348 -9.19077 -16.069
LeftUpLeg  -14.7442 3.486 -16.4554
LeftLeg  26.8543 15.9087 8.92065
LeftFoot  -16.6098 0.451384 7.62575
LeftToes  -1.43952e-010 7.51141e-011 -1.22592e-011
3338
root  52.1912 37.8642 -65.3553 -2.43237 -69.4962 5.0412
RightUpLeg  -27.4742 15.4462 -13.3018
RightLeg  56.983 -5.04467 -8.73042
RightFoot  -10.5152 -0.107457 4.99484
RightToes  1.218e-010 1.26228e-014 -6.01869e-014
Spine  -0.253432 0.838473 1.8823
Spine1  7.95728 0.274945 0.0255614
HEad  4.58201 36.0816 -17.0077
LeftShoulder1  1.62575 -2.61886 -21.3208
LeftArm  17.0527 6.89185 -50.7271
LeftForeArm  29.7987 -23.0703 -3.57261
LeftHand  0.174417 6.95069 14.3105
RightShoulder  2.00119 3.08184 25.2929
RightArm  21.1349 14.4612 59.4408
RightForeArm  45.0077 23.8504 2.90048
RightHand  0.604503 -9.52917 -17.4518
LeftUpLeg  -11.9862 0.726809 -15.4198
LeftLeg  27.2723 14.3127 8.23831
LeftFoot  -18.4094 0.55234 7.13977
LeftToes  -1.43952e-010 7.51141e-011 -1.22592e-011
3339
root  51.0508 37.8649 -65.0761 -0.0650635 -64.7304 2.48288
RightUpLeg  -29.9452 17.5231 -13.9899
RightLeg  49.8565 -5.37038 -7.12498
RightFoot  -11.3602 -0.0762524 5.49109
RightToes  1.218e-010 1.26228e-014 -6.01869e-014
Spine  -0.442864 0.325102 1.9969
Spine1  7.68763 -0.166319 0.351166
HEad  4.70318 33.5349 -16.3539
LeftShoulder1  1.70398 -3.0152 -20.8068
LeftArm  12.7082 5.26133 -49.9999
LeftForeArm  34.4785 -27.7943 -4.13766
LeftHand  0.214084 7.06727 15.9039
RightShoulder  1.94361 2.91143 25.2174
RightArm  17.4662 13.9273 58.8114
RightForeArm  48.6469 29.6076 3.83098
RightHand  0.752113 -10.0734 -18.9811
LeftUpLeg  -9.50135 -2.02719 -14.259
LeftLeg  27.6136 12.5133 7.37431
LeftFoot  -20.2181 0.601603 6.17718
LeftToes  -1.43952e-010 7.51141e-011 -1.22592e-011
3340
root  49.9544 37.8465 -64.7779 1.40314 -60.4078 1.07938
RightUpLeg  -32.0038 18.6819 -15.2969
RightLeg  40.7304 -4.56875 -4.47583
RightFoot  -11.5255 -0.0675969 6.66907
RightToes  1.218e-010 1.26228e-014 -6.01869e-014
Spine  -0.518657 0.0761127 2.28552
Spine1  7.34853 -0.223402 0.451995
HEad  4.90534 30.8389 -15.5504
LeftShoulder1  1.69691 -3.16285 -20.0314
LeftArm  9.16442 3.19097 -49.6006
LeftForeArm  39.332 -32.7799 -5.01853
LeftHand  0.28339 7.44203 16.8622
RightShoulder  1.91598 2.83098 25.1726
RightArm  14.0048 13.3917 57.9349
RightForeArm  52.8839 35.8785 5.07825
RightHand  0.909921 -10.723 -20.0233
LeftUpLeg  -7.30963 -4.54812 -13.2767
LeftLeg  27.6575 11.1277 6.62526
LeftFoot  -21.4857 0.737075 6.83843
LeftToes  -1.43952e-010 7.51141e-011 -1.22592e-011
